<?xml version="1.0" encoding="UTF-8"?>
<svg version="1.1" xmlns="http://www.w3.org/2000/svg" width="225" height="225">
<path d="M0 0 C1.00067001 -0.00287018 2.00134003 -0.00574036 3.03233337 -0.00869751 C5.14110889 -0.01073316 7.2499035 -0.00523835 9.35864258 0.00732422 C12.58262364 0.02340149 15.80535431 0.00744944 19.02929688 -0.01171875 C21.08203401 -0.00973656 23.13477037 -0.00589339 25.1875 0 C26.62984764 -0.00910904 26.62984764 -0.00910904 28.10133362 -0.0184021 C33.00950499 0.03309976 36.60003579 0.08701895 40.52734375 3.3984375 C41.15625 5.3359375 41.15625 5.3359375 41.08984375 7.3984375 C41.09177734 8.419375 41.09177734 8.419375 41.09375 9.4609375 C40.24833573 12.35283735 39.17014961 12.92908022 36.52734375 14.3984375 C33.49633227 14.86482555 30.48426611 14.86329662 27.421875 14.875 C26.54206467 14.89057953 25.66225433 14.90615906 24.75578308 14.92221069 C21.95047861 14.96968726 19.14542298 14.99748884 16.33984375 15.0234375 C13.52372683 15.05988898 10.70775223 15.10044276 7.89176941 15.14608765 C6.14015525 15.17338448 4.38843628 15.19470506 2.63667297 15.20962524 C-1.23036306 14.88003416 -1.23036306 14.88003416 -4.47265625 16.3984375 C-4.57159403 18.17289759 -4.60064717 19.95130001 -4.60205078 21.72851562 C-4.60520294 22.86639526 -4.6083551 24.0042749 -4.61160278 25.17663574 C-4.60957855 26.41514282 -4.60755432 27.6536499 -4.60546875 28.9296875 C-4.60642548 30.19107544 -4.6073822 31.45246338 -4.60836792 32.7520752 C-4.60905 35.42540888 -4.60769154 38.09865187 -4.60302734 40.77197266 C-4.59733006 44.20550441 -4.60060926 47.638958 -4.60659981 51.07248688 C-4.61107387 54.33738993 -4.60794508 57.60228343 -4.60546875 60.8671875 C-4.60749298 62.10569458 -4.60951721 63.34420166 -4.61160278 64.62023926 C-4.60845062 65.7581189 -4.60529846 66.89599854 -4.60205078 68.06835938 C-4.60125519 69.07572144 -4.60045959 70.0830835 -4.59963989 71.12097168 C-4.72835349 73.36495544 -4.72835349 73.36495544 -3.47265625 74.3984375 C-1.69819616 74.49737528 0.08020626 74.52642842 1.85742188 74.52783203 C2.99530151 74.53098419 4.13318115 74.53413635 5.30554199 74.53738403 C6.54404907 74.5353598 7.78255615 74.53333557 9.05859375 74.53125 C10.31998169 74.53220673 11.58136963 74.53316345 12.88098145 74.53414917 C15.55431513 74.53483125 18.22755812 74.53347279 20.90087891 74.52880859 C24.33441066 74.52311131 27.76786425 74.52639051 31.20139313 74.53238106 C34.46629618 74.53685512 37.73118968 74.53372633 40.99609375 74.53125 C42.23460083 74.53327423 43.47310791 74.53529846 44.74914551 74.53738403 C45.88702515 74.53423187 47.02490479 74.53107971 48.19726562 74.52783203 C49.20462769 74.52703644 50.21198975 74.52624084 51.24987793 74.52542114 C53.49386169 74.65413474 53.49386169 74.65413474 54.52734375 73.3984375 C54.65055025 70.56258998 54.71348351 67.74734235 54.73828125 64.91015625 C54.76635496 63.15428763 54.79501946 61.39842838 54.82421875 59.64257812 C54.86546874 56.86434235 54.9023405 54.08628043 54.92871094 51.30786133 C54.95632101 48.63325489 55.00219964 45.95945296 55.05078125 43.28515625 C55.05403412 42.45586105 55.05728699 41.62656586 55.06063843 40.7721405 C55.13507756 37.27954261 55.19642043 34.99659106 56.90869141 31.90161133 C59.12463236 29.84376088 60.50910056 29.47030043 63.52734375 29.3984375 C68.12435868 31.59246735 68.12435868 31.59246735 69.52734375 34.3984375 C69.63206106 35.88310462 69.67601422 37.37229235 69.68847656 38.8605957 C69.69808411 39.78528152 69.70769165 40.70996735 69.71759033 41.66267395 C69.72184021 42.66473373 69.72609009 43.66679352 69.73046875 44.69921875 C69.73616882 45.7277446 69.7418689 46.75627045 69.7477417 47.81596375 C69.75719994 49.99570687 69.76372894 52.17546436 69.76757812 54.35522461 C69.77727392 57.68694102 69.80828591 61.0180381 69.83984375 64.34960938 C69.84637468 66.46614217 69.8516248 68.58267937 69.85546875 70.69921875 C69.86781555 71.69520584 69.88016235 72.69119293 69.8928833 73.71736145 C69.86381178 82.76636087 69.86381178 82.76636087 66.52734375 86.3984375 C62.00900622 89.10732932 58.66211513 89.77645541 53.42382812 89.78662109 C52.39821526 89.79450653 52.39821526 89.79450653 51.35188293 89.80255127 C49.10804914 89.81567688 46.86493385 89.80704026 44.62109375 89.796875 C43.05220403 89.79889789 41.48331523 89.80181112 39.91442871 89.80557251 C36.63280245 89.80998577 33.35142184 89.8035972 30.06982422 89.78955078 C25.87335403 89.77245929 21.67745953 89.78230586 17.48101044 89.80026817 C14.24326273 89.81113315 11.00565045 89.80764728 7.76789856 89.7998848 C6.22101269 89.79789028 4.67411433 89.80031567 3.12724304 89.80732346 C0.96145274 89.81498301 -1.2034184 89.80327228 -3.36914062 89.78662109 C-4.5990271 89.78423431 -5.82891357 89.78184753 -7.09606934 89.77938843 C-10.95238838 89.3443135 -13.2538673 88.56977739 -16.47265625 86.3984375 C-19.41503129 82.03666792 -19.85076261 78.48763103 -19.86083984 73.29492188 C-19.8660968 72.61117996 -19.87135376 71.92743805 -19.87677002 71.22297668 C-19.88989563 68.97914289 -19.88125901 66.7360276 -19.87109375 64.4921875 C-19.87311664 62.92329778 -19.87602987 61.35440898 -19.87979126 59.78552246 C-19.88420452 56.5038962 -19.87781595 53.22251559 -19.86376953 49.94091797 C-19.84667804 45.74444778 -19.85652461 41.54855328 -19.87448692 37.35210419 C-19.8853519 34.11435648 -19.88186603 30.8767442 -19.87410355 27.63899231 C-19.87210903 26.09210644 -19.87453442 24.54520808 -19.88154221 22.99833679 C-19.88920176 20.83254649 -19.87749103 18.66767535 -19.86083984 16.50195312 C-19.85845306 15.27206665 -19.85606628 14.04218018 -19.85360718 12.77502441 C-19.42963205 9.0170893 -18.43830915 6.61227055 -16.47265625 3.3984375 C-11.35815799 -0.33724132 -6.08007174 -0.03847925 0 0 Z " fill="#275BA2" transform="translate(87.47265625,40.6015625)"/>
<path d="M0 0 C3.9143716 2.55285105 6.97535906 5.20919281 8.51171875 9.76171875 C9.45573559 14.92843455 8.51599858 19.34613932 5.875 23.875 C0.85737051 28.64786708 -2.61341849 29.236671 -9.36328125 29.1484375 C-13.29860604 28.75880138 -15.27233132 27.58851411 -18.125 24.875 C-20.83230959 21.44630698 -22.02705315 18.67256719 -22.5625 14.3125 C-21.88589326 8.9963042 -20.14786886 5.55499063 -16.125 2.0625 C-10.93589161 -1.72122487 -6.05728943 -2.18062419 0 0 Z " fill="#B99637" transform="translate(156.125,36.125)"/>
<path d="M0 0 C3.39549621 1.35819848 4.60688352 1.94586413 6.125 5.25 C6.52682085 9.0003279 6.61477149 11.34042438 4.8125 14.6875 C3.125 16.25 3.125 16.25 0.125 16.25 C0.558125 17.02085937 0.99125 17.79171875 1.4375 18.5859375 C1.994375 19.58882812 2.55125 20.59171875 3.125 21.625 C3.681875 22.62273437 4.23875 23.62046875 4.8125 24.6484375 C6.125 27.25 6.125 27.25 6.125 29.25 C3.485 29.25 0.845 29.25 -1.875 29.25 C-2.27332031 28.46753906 -2.67164063 27.68507812 -3.08203125 26.87890625 C-3.61183594 25.86699219 -4.14164063 24.85507813 -4.6875 23.8125 C-5.47060547 22.29849609 -5.47060547 22.29849609 -6.26953125 20.75390625 C-7.68918484 17.96308782 -7.68918484 17.96308782 -10.875 17.25 C-10.86339844 18.03246094 -10.85179687 18.81492188 -10.83984375 19.62109375 C-10.83082031 20.63300781 -10.82179687 21.64492187 -10.8125 22.6875 C-10.80089844 23.69683594 -10.78929687 24.70617187 -10.77734375 25.74609375 C-10.875 28.25 -10.875 28.25 -11.875 29.25 C-13.87458364 29.29080783 -15.87545254 29.29254356 -17.875 29.25 C-18.01983042 24.81284145 -18.10891752 20.37628723 -18.1875 15.9375 C-18.22939453 14.67486328 -18.27128906 13.41222656 -18.31445312 12.11132812 C-18.33056641 10.90283203 -18.34667969 9.69433594 -18.36328125 8.44921875 C-18.38946533 7.33377686 -18.41564941 6.21833496 -18.44262695 5.0690918 C-17.875 2.25 -17.875 2.25 -15.48266602 0.38525391 C-10.33866429 -1.85420008 -5.39336639 -1.04387737 0 0 Z M-10.875 6.25 C-10.91580783 8.24958364 -10.91754356 10.25045254 -10.875 12.25 C-6.42 11.755 -6.42 11.755 -1.875 11.25 C-1.545 9.93 -1.215 8.61 -0.875 7.25 C-3.63762714 5.40824858 -8.02592318 3.40092318 -10.875 6.25 Z " fill="#275DA6" transform="translate(161.875,142.75)"/>
<path d="M0 0 C3.6223318 1.50575361 5.15463417 3.1155883 6.6875 6.8125 C8.51543485 11.79777687 8.10500138 16.61963892 6.375 21.5625 C4.21436057 25.7237315 3.12436082 27.33354639 -1.3125 28.8125 C-3.4759168 28.95747123 -5.64442931 29.03320175 -7.8125 29.0625 C-8.9571875 29.08828125 -10.101875 29.1140625 -11.28125 29.140625 C-14.3125 28.8125 -14.3125 28.8125 -15.97265625 27.63183594 C-18.78914629 23.80740376 -17.82314437 18.37893386 -17.8125 13.8125 C-17.85503906 12.15347656 -17.85503906 12.15347656 -17.8984375 10.4609375 C-17.90101562 9.40132812 -17.90359375 8.34171875 -17.90625 7.25 C-17.91333984 6.27933594 -17.92042969 5.30867187 -17.92773438 4.30859375 C-17.3125 1.8125 -17.3125 1.8125 -15.01367188 -0.00390625 C-9.91604754 -2.23757244 -5.15436469 -1.65811364 0 0 Z M-10.3125 5.8125 C-10.3125 11.4225 -10.3125 17.0325 -10.3125 22.8125 C-3.9494561 23.40124212 -3.9494561 23.40124212 -1.39453125 21.69140625 C0.16000922 18.99200565 0.0488689 16.84377705 0 13.75 C-0.00386719 12.68652344 -0.00773437 11.62304688 -0.01171875 10.52734375 C-0.04250488 7.66586734 -0.04250488 7.66586734 -2.3125 5.8125 C-4.9525 5.8125 -7.5925 5.8125 -10.3125 5.8125 Z " fill="#22508D" transform="translate(97.3125,143.1875)"/>
<path d="M0 0 C3.82652116 0.75163808 4.94300382 1.73392093 7.30029297 4.74194336 C9.60434226 8.47840425 10.65311903 12.60936159 11.8125 16.8125 C12.07611328 17.70582031 12.33972656 18.59914062 12.61132812 19.51953125 C13.7463969 23.46426378 14.5 26.53849194 14.5 30.6875 C12.19 30.6875 9.88 30.6875 7.5 30.6875 C6.84 28.7075 6.18 26.7275 5.5 24.6875 C1.54 24.3575 -2.42 24.0275 -6.5 23.6875 C-7.16 25.9975 -7.82 28.3075 -8.5 30.6875 C-10.48 30.6875 -12.46 30.6875 -14.5 30.6875 C-16.12652453 25.8079264 -13.89935551 21.58840416 -12.375 16.8125 C-11.93027344 15.32169922 -11.93027344 15.32169922 -11.4765625 13.80078125 C-7.58732892 1.49036818 -7.58732892 1.49036818 0 0 Z M-1.5 6.6875 C-2.00367757 8.14456726 -2.50282556 9.60320096 -3 11.0625 C-3.2784375 11.87460938 -3.556875 12.68671875 -3.84375 13.5234375 C-4.59673305 15.62959242 -4.59673305 15.62959242 -4.5 17.6875 C-1.86 17.6875 0.78 17.6875 3.5 17.6875 C2.84 14.3875 2.18 11.0875 1.5 7.6875 C0.51 7.3575 -0.48 7.0275 -1.5 6.6875 Z " fill="#25589A" transform="translate(123.5,141.3125)"/>
<path d="M0 0 C0.66 -0.00128906 1.32 -0.00257813 2 -0.00390625 C4.86977243 0.80882227 6.05626418 2.3247777 8 4.5625 C9.09667969 7.08032227 9.09667969 7.08032227 9.921875 9.87890625 C10.22480469 10.89017578 10.52773437 11.90144531 10.83984375 12.94335938 C11.14019531 13.99330078 11.44054687 15.04324219 11.75 16.125 C12.06582031 17.17880859 12.38164063 18.23261719 12.70703125 19.31835938 C15 27.09559321 15 27.09559321 15 30.5625 C12.69 30.5625 10.38 30.5625 8 30.5625 C7.34 28.2525 6.68 25.9425 6 23.5625 C2.04 23.5625 -1.92 23.5625 -6 23.5625 C-6.66 25.8725 -7.32 28.1825 -8 30.5625 C-9.98 30.5625 -11.96 30.5625 -14 30.5625 C-15.62724065 25.68077806 -13.35663815 21.45805801 -11.8125 16.6875 C-11.50763672 15.69363281 -11.20277344 14.69976562 -10.88867188 13.67578125 C-6.45389031 -0.21428933 -6.45389031 -0.21428933 0 0 Z M-1 6.5625 C-1.50615298 7.83089526 -2.00469099 9.10233102 -2.5 10.375 C-2.7784375 11.08269531 -3.056875 11.79039062 -3.34375 12.51953125 C-4.1529162 14.68091216 -4.1529162 14.68091216 -4 17.5625 C-1.36 17.5625 1.28 17.5625 4 17.5625 C3.34 14.2625 2.68 10.9625 2 7.5625 C1.01 7.2325 0.02 6.9025 -1 6.5625 Z " fill="#255DA6" transform="translate(59,141.4375)"/>
<path d="M0 0 C3.37594738 2.74101246 4.71287214 5.19330827 5.95703125 9.31640625 C6.41819336 10.83331055 6.41819336 10.83331055 6.88867188 12.38085938 C7.19353516 13.43080078 7.49839844 14.48074219 7.8125 15.5625 C8.13669922 16.61630859 8.46089844 17.67011719 8.79492188 18.75585938 C11.13297043 26.6010887 11.13297043 26.6010887 10 30 C8.02 30 6.04 30 4 30 C3.34 27.69 2.68 25.38 2 23 C-1.96 23 -5.92 23 -10 23 C-10.66 25.31 -11.32 27.62 -12 30 C-13.98 30 -15.96 30 -18 30 C-19.66395343 25.00813972 -17.36459657 20.47276289 -15.875 15.5625 C-15.57851562 14.51255859 -15.28203125 13.46261719 -14.9765625 12.38085938 C-12.67098037 4.71675267 -12.67098037 4.71675267 -9.48046875 1.30859375 C-6.06583636 -0.49282649 -3.80171911 -0.55297732 0 0 Z M-5 6 C-5.50615298 7.26839526 -6.00469099 8.53983102 -6.5 9.8125 C-6.7784375 10.52019531 -7.056875 11.22789062 -7.34375 11.95703125 C-8.1529162 14.11841216 -8.1529162 14.11841216 -8 17 C-5.36 17 -2.72 17 0 17 C-0.66 13.7 -1.32 10.4 -2 7 C-2.99 6.67 -3.98 6.34 -5 6 Z " fill="#24599F" transform="translate(192,142)"/>
<path d="M0 0 C4.55555556 0.55555556 4.55555556 0.55555556 6 2 C6.28044044 5.19957045 6.23188781 8.41461409 6.25 11.625 C6.270625 12.51574219 6.29125 13.40648437 6.3125 14.32421875 C6.34581802 19.97995246 5.87226296 24.07057573 3 29 C0.69767513 30.77906922 -0.46577265 31.00530689 -3.359375 30.9765625 C-4.14828125 30.86054688 -4.9371875 30.74453125 -5.75 30.625 C-6.54921875 30.51414063 -7.3484375 30.40328125 -8.171875 30.2890625 C-9.07679687 30.14597656 -9.07679687 30.14597656 -10 30 C-10.33 28.35 -10.66 26.7 -11 25 C-7.846632 24.29925156 -5.27275026 24 -2 24 C-2.01047363 23.34402832 -2.02094727 22.68805664 -2.03173828 22.01220703 C-2.07322503 19.04984342 -2.09930262 16.08754084 -2.125 13.125 C-2.14175781 12.09246094 -2.15851562 11.05992187 -2.17578125 9.99609375 C-2.18222656 9.00996094 -2.18867188 8.02382812 -2.1953125 7.0078125 C-2.20578613 6.09660645 -2.21625977 5.18540039 -2.22705078 4.24658203 C-2 2 -2 2 0 0 Z " fill="#1F4E8A" transform="translate(33,142)"/>
<path d="M0 0 C1.01252838 0.00424484 2.02505676 0.00848969 3.06826782 0.01286316 C6.28797498 0.02959573 9.50704594 0.06723849 12.7265625 0.10546875 C14.91535552 0.12052257 17.10415839 0.13420975 19.29296875 0.14648438 C24.64604876 0.17948143 29.99876016 0.22962679 35.3515625 0.29296875 C35.0215625 0.95296875 34.6915625 1.61296875 34.3515625 2.29296875 C33.78415344 2.30327621 33.21674438 2.31358368 32.63214111 2.32420349 C26.72730222 2.43237196 20.82261274 2.5469616 14.91796875 2.6652832 C12.7142245 2.70859885 10.51044742 2.75027634 8.30664062 2.7902832 C5.13922226 2.84806719 1.97196864 2.91173851 -1.1953125 2.9765625 C-2.18086121 2.99327499 -3.16640991 3.00998749 -4.18182373 3.02720642 C-5.1024762 3.04715164 -6.02312866 3.06709686 -6.97167969 3.08764648 C-7.7799823 3.10319077 -8.58828491 3.11873505 -9.42108154 3.13475037 C-11.60650481 3.2899901 -13.54552331 3.69305684 -15.6484375 4.29296875 C-17.29179721 9.31730169 -17.87630579 13.44496854 -17.78369141 18.78881836 C-17.77422989 19.5018512 -17.76476837 20.21488403 -17.75502014 20.94952393 C-17.72162417 23.28173062 -17.67343487 25.6133739 -17.625 27.9453125 C-17.59880369 29.57197136 -17.57353906 31.19864547 -17.54916382 32.82533264 C-17.48279857 37.08830192 -17.40384523 41.35094702 -17.32220459 45.61364746 C-17.24100428 49.97082156 -17.17179904 54.3281847 -17.1015625 58.68554688 C-16.9622123 67.22158363 -16.80955342 75.75731519 -16.6484375 84.29296875 C-18.6484375 83.29296875 -18.6484375 83.29296875 -19.6484375 80.29296875 C-19.75333324 78.04045692 -19.79711905 75.78494784 -19.80957031 73.5300293 C-19.81453522 72.84672546 -19.81950012 72.16342163 -19.82461548 71.45941162 C-19.83921654 69.19949331 -19.84603602 66.93964522 -19.8515625 64.6796875 C-19.85731612 63.10651142 -19.86307383 61.53333535 -19.86883545 59.9601593 C-19.87933991 56.66069208 -19.88518605 53.36124917 -19.88867188 50.06176758 C-19.89415218 45.84172748 -19.91817242 41.62201075 -19.94664383 37.40207195 C-19.96530388 34.15148491 -19.97047762 30.9009752 -19.97200775 27.65033913 C-19.97502776 26.09506273 -19.98303427 24.53978749 -19.99619293 22.98456383 C-20.01332272 20.8041592 -20.01135667 18.62453713 -20.00488281 16.4440918 C-20.00852844 15.20515671 -20.01217407 13.96622162 -20.01593018 12.68974304 C-19.60733234 8.91302933 -18.62511294 6.51916188 -16.6484375 3.29296875 C-11.48902568 -0.5054172 -6.13680682 -0.09743528 0 0 Z " fill="#24538F" transform="translate(87.6484375,40.70703125)"/>
<path d="M0 0 C3.03186376 0.61312273 4.10448122 2.10566753 6.10546875 4.42578125 C7.20214844 6.94360352 7.20214844 6.94360352 8.02734375 9.7421875 C8.33027344 10.75345703 8.63320312 11.76472656 8.9453125 12.80664062 C9.24566406 13.85658203 9.54601562 14.90652344 9.85546875 15.98828125 C10.17128906 17.04208984 10.48710938 18.09589844 10.8125 19.18164062 C13.10546875 26.95887446 13.10546875 26.95887446 13.10546875 30.42578125 C12.44546875 30.42578125 11.78546875 30.42578125 11.10546875 30.42578125 C10.83992188 29.34039062 10.574375 28.255 10.30078125 27.13671875 C9.94413793 25.69137478 9.58735995 24.24606403 9.23046875 22.80078125 C9.05644531 22.08792969 8.88242188 21.37507813 8.703125 20.640625 C7.20982607 14.43541008 7.20982607 14.43541008 5.10546875 8.42578125 C4.11546875 8.09578125 3.12546875 7.76578125 2.10546875 7.42578125 C2.43546875 8.41578125 2.76546875 9.40578125 3.10546875 10.42578125 C2.77546875 11.08578125 2.44546875 11.74578125 2.10546875 12.42578125 C3.09546875 12.75578125 4.08546875 13.08578125 5.10546875 13.42578125 C5.10546875 15.07578125 5.10546875 16.72578125 5.10546875 18.42578125 C4.44546875 18.75578125 3.78546875 19.08578125 3.10546875 19.42578125 C0.23113035 16.55144285 0.29796915 13.56125247 -0.33203125 9.640625 C-0.51765625 8.90972656 -0.70328125 8.17882812 -0.89453125 7.42578125 C-1.55453125 7.09578125 -2.21453125 6.76578125 -2.89453125 6.42578125 C-3.88453125 9.72578125 -4.87453125 13.02578125 -5.89453125 16.42578125 C-6.22453125 15.76578125 -6.55453125 15.10578125 -6.89453125 14.42578125 C-9.06327377 14.93182117 -10.89420752 15.42561938 -12.89453125 16.42578125 C-11.42166758 7.70487793 -9.76540237 0.53132583 0 0 Z " fill="#21518F" transform="translate(60.89453125,141.57421875)"/>
<path d="M0 0 C0.33 0.99 0.66 1.98 1 3 C-0.98 3.99 -0.98 3.99 -3 5 C-3.02684312 7.81256281 -3.04676188 10.62487241 -3.0625 13.4375 C-3.07087891 14.23994141 -3.07925781 15.04238281 -3.08789062 15.86914062 C-3.0965143 17.91295221 -3.0522815 19.95683902 -3 22 C-1.90368631 23.32131818 -1.90368631 23.32131818 0.8125 23.125 C3.44327303 23.02183243 5.54506496 22.9092352 8 22 C8.33 21.34 8.66 20.68 9 20 C9.33 20.99 9.66 21.98 10 23 C9.34 23 8.68 23 8 23 C7.67 24.65 7.34 26.3 7 28 C4.89646505 28.0810206 2.79204048 28.13919907 0.6875 28.1875 C-0.48425781 28.22230469 -1.65601562 28.25710937 -2.86328125 28.29296875 C-6 28 -6 28 -7.67114258 26.79418945 C-9.42617132 24.42459434 -9.38725105 22.93191411 -9.3984375 20 C-9.40230469 19.030625 -9.40617187 18.06125 -9.41015625 17.0625 C-9.39855469 16.051875 -9.38695313 15.04125 -9.375 14 C-9.38660156 12.989375 -9.39820312 11.97875 -9.41015625 10.9375 C-9.40628906 9.968125 -9.40242188 8.99875 -9.3984375 8 C-9.39505371 7.113125 -9.39166992 6.22625 -9.38818359 5.3125 C-8.45508327 -0.24619579 -4.99110381 -0.33274025 0 0 Z " fill="#275DA6" transform="translate(89,144)"/>
<path d="M0 0 C2.10716307 3.1607446 2.25661123 3.95786035 2.29052734 7.57568359 C2.3096669 8.96259903 2.3096669 8.96259903 2.32919312 10.37753296 C2.33141876 11.37443146 2.33364441 12.37132996 2.3359375 13.3984375 C2.3425943 14.4255484 2.3492511 15.4526593 2.35610962 16.51089478 C2.36623874 18.68465381 2.37092656 20.85844395 2.37060547 23.03222656 C2.37497415 26.35534044 2.4112796 29.67712158 2.44921875 33 C2.45508774 35.11197462 2.45905658 37.22395556 2.4609375 39.3359375 C2.47530853 40.32878754 2.48967957 41.32163757 2.50448608 42.34457397 C2.4746674 46.85578511 2.45399156 49.29142352 -0.02880859 53.16650391 C-0.67930176 53.77155762 -1.32979492 54.37661133 -2 55 C-1.83766876 54.27725891 -1.67533752 53.55451782 -1.50808716 52.80987549 C-1.02623059 50.14506308 -0.87316958 47.74469792 -0.87060547 45.04199219 C-0.86745331 44.08460144 -0.86430115 43.12721069 -0.86105347 42.14080811 C-0.8630777 41.11981018 -0.86510193 40.09881226 -0.8671875 39.046875 C-0.86623077 37.99091125 -0.86527405 36.93494751 -0.86428833 35.84698486 C-0.86360913 33.62129659 -0.86544529 31.39560632 -0.86962891 29.16992188 C-0.87500212 25.74865326 -0.86966421 22.32751466 -0.86328125 18.90625 C-0.86394166 16.74479138 -0.86522205 14.58333283 -0.8671875 12.421875 C-0.86516327 11.39278015 -0.86313904 10.3636853 -0.86105347 9.30340576 C-0.86420563 8.35862366 -0.86735779 7.41384155 -0.87060547 6.44042969 C-0.87140106 5.60501648 -0.87219666 4.76960327 -0.87301636 3.90887451 C-0.79018476 1.99027777 -0.79018476 1.99027777 -2 1 C-3.99958364 0.95919217 -6.00045254 0.95745644 -8 1 C-10.49114145 4.78084656 -10.22367736 8.55175219 -10.125 12.90625 C-10.11742676 13.66796509 -10.10985352 14.42968018 -10.10205078 15.21447754 C-10.07766759 17.64321752 -10.04041924 20.07147713 -10 22.5 C-9.94677551 25.69790459 -9.90679746 28.89556851 -9.875 32.09375 C-9.85840332 32.82613892 -9.84180664 33.55852783 -9.82470703 34.31311035 C-9.78877617 38.05233043 -9.91021204 40.82829426 -12 44 C-12.66 43.67 -13.32 43.34 -14 43 C-13.505 42.505 -13.505 42.505 -13 42 C-12.8767935 39.16415248 -12.81386024 36.34890485 -12.7890625 33.51171875 C-12.76098879 31.75585013 -12.73232429 29.99999088 -12.703125 28.24414062 C-12.66187501 25.46590485 -12.62500325 22.68784293 -12.59863281 19.90942383 C-12.57102274 17.23481739 -12.52514411 14.56101546 -12.4765625 11.88671875 C-12.47330963 11.05742355 -12.47005676 10.22812836 -12.46670532 9.373703 C-12.39283223 5.90766296 -12.32037387 3.59500502 -10.65771484 0.50708008 C-6.94934134 -2.86431752 -4.25911706 -1.81239024 0 0 Z " fill="#265085" transform="translate(155,72)"/>
<path d="M0 0 C3.39549621 1.35819848 4.60688352 1.94586413 6.125 5.25 C6.53814312 9.10600245 6.67902253 11.34971339 4.625 14.6875 C4.13 15.203125 3.635 15.71875 3.125 16.25 C1.805 15.92 0.485 15.59 -0.875 15.25 C-0.215 14.92 0.445 14.59 1.125 14.25 C0.795 13.26 0.465 12.27 0.125 11.25 C-0.535 11.91 -1.195 12.57 -1.875 13.25 C-3.93359375 13.55078125 -3.93359375 13.55078125 -6.3125 13.5625 C-7.48619141 13.58763672 -7.48619141 13.58763672 -8.68359375 13.61328125 C-11.33627163 13.17353251 -12.197967 12.29371546 -13.875 10.25 C-12.885 8.27 -11.895 6.29 -10.875 4.25 C-9.08341511 4.22303635 -7.29171527 4.20362083 -5.5 4.1875 C-4.50226563 4.17589844 -3.50453125 4.16429687 -2.4765625 4.15234375 C0.125 4.25 0.125 4.25 2.125 5.25 C2.125 4.59 2.125 3.93 2.125 3.25 C-0.94033164 1.71733418 -4.14254272 2.14723529 -7.5 2.1875 C-8.55960938 2.19426758 -8.55960938 2.19426758 -9.640625 2.20117188 C-11.38545275 2.21296125 -13.130237 2.23089676 -14.875 2.25 C-15.82876567 5.45782086 -15.99121181 8.33187396 -15.97265625 11.671875 C-15.96943359 12.69667969 -15.96621094 13.72148437 -15.96289062 14.77734375 C-15.95451172 15.84082031 -15.94613281 16.90429688 -15.9375 18 C-15.93298828 19.07894531 -15.92847656 20.15789062 -15.92382812 21.26953125 C-15.91205727 23.92974383 -15.89561399 26.58984365 -15.875 29.25 C-16.535 29.25 -17.195 29.25 -17.875 29.25 C-18.01983042 24.81284145 -18.10891752 20.37628723 -18.1875 15.9375 C-18.22939453 14.67486328 -18.27128906 13.41222656 -18.31445312 12.11132812 C-18.33056641 10.90283203 -18.34667969 9.69433594 -18.36328125 8.44921875 C-18.38946533 7.33377686 -18.41564941 6.21833496 -18.44262695 5.0690918 C-17.875 2.25 -17.875 2.25 -15.48266602 0.38525391 C-10.33866429 -1.85420008 -5.39336639 -1.04387737 0 0 Z M-10.875 6.25 C-10.91580783 8.24958364 -10.91754356 10.25045254 -10.875 12.25 C-6.42 11.755 -6.42 11.755 -1.875 11.25 C-1.545 9.93 -1.215 8.61 -0.875 7.25 C-3.63762714 5.40824858 -8.02592318 3.40092318 -10.875 6.25 Z " fill="#234F88" transform="translate(161.875,142.75)"/>
<path d="M0 0 C3.39076635 2.19941601 4.27913549 4.47367182 5.25 8.25 C5.4975 9.4875 5.745 10.725 6 12 C5.01 11.01 4.02 10.02 3 9 C2.34 10.65 1.68 12.3 1 14 C0.34 14 -0.32 14 -1 14 C-1.66 11.69 -2.32 9.38 -3 7 C-3.66 7 -4.32 7 -5 7 C-5.99 9.97 -6.98 12.94 -8 16 C-9.9161229 12.16775421 -10.10833493 11.00839226 -10 7 C-10.33 6.67 -10.66 6.34 -11 6 C-11.10957031 6.77085937 -11.21914062 7.54171875 -11.33203125 8.3359375 C-11.49058594 9.33882812 -11.64914063 10.34171875 -11.8125 11.375 C-11.96332031 12.37273437 -12.11414063 13.37046875 -12.26953125 14.3984375 C-13 17 -13 17 -16 19 C-15.57312017 17.10174715 -15.13300518 15.20646817 -14.6875 13.3125 C-14.44386719 12.25675781 -14.20023438 11.20101562 -13.94921875 10.11328125 C-11.60414528 2.4218263 -8.28894409 -0.87252043 0 0 Z " fill="#215190" transform="translate(192,142)"/>
<path d="M0 0 C1.9375 0.1875 1.9375 0.1875 4 1 C5.25 3.0625 5.25 3.0625 6 5 C6.66 3.35 7.32 1.7 8 0 C8.99 0.33 9.98 0.66 11 1 C11 4.96 11 8.92 11 13 C9.68 13.33 8.36 13.66 7 14 C4.51384442 12.15840327 3.99843096 10.99529289 3 8 C2.67 9.98 2.34 11.96 2 14 C1.01 14 0.02 14 -1 14 C-1.02685938 11.85423363 -1.04633088 9.70837355 -1.0625 7.5625 C-1.07410156 6.36753906 -1.08570313 5.17257813 -1.09765625 3.94140625 C-1 1 -1 1 0 0 Z " fill="#B7932A" transform="translate(161,176)"/>
<path d="M0 0 C0.33 0.99 0.66 1.98 1 3 C0.01 3 -0.98 3 -2 3 C-2.33 2.34 -2.66 1.68 -3 1 C-5.02463255 0.34786708 -5.02463255 0.34786708 -7 0 C-6.01 1.32 -5.02 2.64 -4 4 C-4.33 4.66 -4.66 5.32 -5 6 C-5.33 5.67 -5.66 5.34 -6 5 C-8.64 4.67 -11.28 4.34 -14 4 C-14 9.61 -14 15.22 -14 21 C-11.03 20.67 -8.06 20.34 -5 20 C-5 19.34 -5 18.68 -5 18 C-4.34 18.33 -3.68 18.66 -3 19 C-5.67776856 21.79948531 -7.00976527 22.93811033 -11 23.1875 C-14 23 -14 23 -16 21 C-16.14517744 18.0906442 -16.18630796 15.280054 -16.125 12.375 C-16.11597656 11.57320312 -16.10695313 10.77140625 -16.09765625 9.9453125 C-16.07406223 7.96341477 -16.03819065 5.98167019 -16 4 C-14.35 3.34 -12.7 2.68 -11 2 C-11.33 1.34 -11.66 0.68 -12 0 C-16.7897321 -0.23428313 -16.7897321 -0.23428313 -21 2 C-20.1875 0.0625 -20.1875 0.0625 -19 -2 C-12.0951765 -4.30160783 -6.3866808 -3.02526985 0 0 Z " fill="#21508B" transform="translate(101,145)"/>
<path d="M0 0 C1.875 0.125 1.875 0.125 4 1 C5.75 3.5625 5.75 3.5625 7 6 C7.33 4.02 7.66 2.04 8 0 C8.99 0 9.98 0 11 0 C11 4.29 11 8.58 11 13 C9.68 13.33 8.36 13.66 7 14 C6.01 12.68 5.02 11.36 4 10 C3.34 11.32 2.68 12.64 2 14 C1.01 13.67 0.02 13.34 -1 13 C-1.02686553 11.02090602 -1.04633375 9.04171029 -1.0625 7.0625 C-1.07410156 5.96035156 -1.08570312 4.85820312 -1.09765625 3.72265625 C-1 1 -1 1 0 0 Z " fill="#AE8D2E" transform="translate(92,176)"/>
<path d="M0 0 C2.34023315 0.28082798 4.67305036 0.62468554 7 1 C8.03125 1.165 9.0625 1.33 10.125 1.5 C14.47731652 3.77077384 16.13116866 7.56772745 18 12 C18 12.66 18 13.32 18 14 C15.36 14 12.72 14 10 14 C9.60167969 13.21753906 9.20335937 12.43507812 8.79296875 11.62890625 C8.26316406 10.61699219 7.73335937 9.60507813 7.1875 8.5625 C6.66542969 7.55316406 6.14335937 6.54382813 5.60546875 5.50390625 C4.18581516 2.71308782 4.18581516 2.71308782 1 2 C1 5.63 1 9.26 1 13 C0.01 13.495 0.01 13.495 -1 14 C-1.02705729 12.22925083 -1.04642195 10.45838289 -1.0625 8.6875 C-1.07410156 7.70136719 -1.08570313 6.71523437 -1.09765625 5.69921875 C-1 3 -1 3 0 0 Z " fill="#265594" transform="translate(150,158)"/>
<path d="M0 0 C2 2 2 2 2.375 5.9375 C2.28635216 8.80551846 2.21085143 9.72167611 0.4375 12.0625 C-2.96015441 13.36929016 -5.49547526 12.74134177 -9 12 C-9 8.04 -9 4.08 -9 0 C-5.88135455 -1.55932272 -3.33704665 -0.65549131 0 0 Z M-5 2 C-5 4.31 -5 6.62 -5 9 C-4.01 9 -3.02 9 -2 9 C-1.22757731 7.16299211 -1.22757731 7.16299211 -1 5 C-2.29209912 3.20747941 -2.29209912 3.20747941 -4 2 C-4.33 2 -4.66 2 -5 2 Z " fill="#B39027" transform="translate(114,177)"/>
<path d="M0 0 C1.8125 1 1.8125 1 3 3 C3.54833739 6.60550612 3.62641341 9.78402103 1.9375 13.0625 C-1.20486615 14.58299975 -3.69692708 13.78072633 -7 13 C-9 11 -9 11 -9.375 7.0625 C-9.29486433 4.11884964 -9.26281734 3.31148722 -7.3125 1 C-4.58797975 -0.17817092 -2.93677726 -0.45181189 0 0 Z M-4 3 C-5.35618499 4.12534105 -5.35618499 4.12534105 -5.0625 7.0625 C-5.041875 8.031875 -5.02125 9.00125 -5 10 C-3.68 10 -2.36 10 -1 10 C-0.30840599 8.15274948 -0.30840599 8.15274948 0 6 C-0.66 5.01 -1.32 4.02 -2 3 C-2.66 3 -3.32 3 -4 3 Z " fill="#B08B28" transform="translate(155,176)"/>
<path d="M0 0 C1.65 0.33 3.3 0.66 5 1 C6.32 5.29 7.64 9.58 9 14 C7.68 14 6.36 14 5 14 C4.34 13.01 3.68 12.02 3 11 C1.68 11 0.36 11 -1 11 C-1.33 11.99 -1.66 12.98 -2 14 C-2.99 14 -3.98 14 -5 14 C-4.74279326 12.41439607 -4.46861201 10.83154076 -4.1875 9.25 C-3.96126953 7.92742187 -3.96126953 7.92742187 -3.73046875 6.578125 C-2.94585752 3.8089089 -1.85404641 2.1740599 0 0 Z M1 3 C1 4.32 1 5.64 1 7 C1.66 7 2.32 7 3 7 C2.34 5.68 1.68 4.36 1 3 Z " fill="#AA8B2C" transform="translate(121,176)"/>
<path d="M0 0 C2.32749345 3.49124017 2.50299316 4.89222251 2 9 C-0.01200619 11.83171242 -1.12071767 12.84987863 -4.5625 13.4375 C-7 13 -7 13 -8.75 11.8125 C-10.36578845 9.46960674 -10.79700864 7.84187904 -11 5 C-10.1875 2.25 -10.1875 2.25 -9 0 C-5.85135005 -1.57432497 -3.35512575 -0.71895552 0 0 Z M-5 2 C-5.66 2.66 -6.32 3.32 -7 4 C-6.83492354 6.57540213 -6.83492354 6.57540213 -6 9 C-5.34 9.33 -4.68 9.66 -4 10 C-3.34 9.67 -2.68 9.34 -2 9 C-2 7.02 -2 5.04 -2 3 C-2.99 2.67 -3.98 2.34 -5 2 Z " fill="#B18E2C" transform="translate(74,177)"/>
<path d="M0 0 C4.01091219 3.66213721 5.6135152 6.58921275 6 12 C4.68 11.34 3.36 10.68 2 10 C2 9.01 2 8.02 2 7 C1.34 7 0.68 7 0 7 C1.30155006 11.07964281 1.30155006 11.07964281 3 15 C2.34 15.66 1.68 16.32 1 17 C-1.875 10.375 -1.875 10.375 -3 7 C-3.66 6.67 -4.32 6.34 -5 6 C-5.99 9.63 -6.98 13.26 -8 17 C-6.68 17.33 -5.36 17.66 -4 18 C-6.31 18.66 -8.62 19.32 -11 20 C-10.24964259 16.88200997 -9.36636589 13.81929597 -8.4375 10.75 C-8.16808594 9.85796875 -7.89867188 8.9659375 -7.62109375 8.046875 C-7.41613281 7.37140625 -7.21117188 6.6959375 -7 6 C-3.71303767 5.20046862 -2.28976808 4.90341064 1 6 C0.34 4.68 -0.32 3.36 -1 2 C-3.31 2.33 -5.62 2.66 -8 3 C-8.33 3.99 -8.66 4.98 -9 6 C-9.66 6 -10.32 6 -11 6 C-11.33 7.65 -11.66 9.3 -12 11 C-12.75 9.375 -12.75 9.375 -13 7 C-9.4508819 0.75844747 -7.26800701 -0.86230592 0 0 Z " fill="#224F8F" transform="translate(127,142)"/>
<path d="M0 0 C0.99 0.33 1.98 0.66 3 1 C3 3.97 3 6.94 3 10 C4.32 9.67 5.64 9.34 7 9 C7.33 6.03 7.66 3.06 8 0 C8.99 0 9.98 0 11 0 C11.33 3.96 11.66 7.92 12 12 C8.00025484 13.99987258 6.33277245 14.55311989 2 14 C0.125 12.5625 0.125 12.5625 -1 10 C-1.28536001 6.97729764 -1.31864618 4.02101092 -1 1 C-0.67 0.67 -0.34 0.34 0 0 Z " fill="#B28E2C" transform="translate(78,176)"/>
<path d="M0 0 C1.32 0 2.64 0 4 0 C4.22573595 3.60329889 4.42759125 7.20754699 4.625 10.8125 C4.68945312 11.83666016 4.75390625 12.86082031 4.8203125 13.91601562 C4.871875 14.89892578 4.9234375 15.88183594 4.9765625 16.89453125 C5.02893066 17.80050049 5.08129883 18.70646973 5.13525391 19.63989258 C5 22 5 22 3 25 C1.0546875 25.51171875 1.0546875 25.51171875 -1.125 25.6875 C-2.40375 25.790625 -3.6825 25.89375 -5 26 C-2 24 -2 24 0 24 C0.33 23.01 0.66 22.02 1 21 C0.34 20.34 -0.32 19.68 -1 19 C-1.13525391 17.02880859 -1.13525391 17.02880859 -0.9765625 14.6484375 C-0.925 13.79765625 -0.8734375 12.946875 -0.8203125 12.0703125 C-0.75585938 11.18085938 -0.69140625 10.29140625 -0.625 9.375 C-0.53992187 8.02921875 -0.53992187 8.02921875 -0.453125 6.65625 C-0.31145247 4.43671376 -0.1600296 2.21827598 0 0 Z " fill="#245DA8" transform="translate(33,144)"/>
<path d="M0 0 C0.99 0 1.98 0 3 0 C3 0.99 3 1.98 3 3 C3.99 3.33 4.98 3.66 6 4 C6.765625 6.03125 6.765625 6.03125 7.25 8.5 C7.42015625 9.3146875 7.5903125 10.129375 7.765625 10.96875 C7.84296875 11.6390625 7.9203125 12.309375 8 13 C7 14 7 14 3.9375 14.0625 C2.968125 14.041875 1.99875 14.02125 1 14 C0.34 11.69 -0.32 9.38 -1 7 C-4.96 7 -8.92 7 -13 7 C-13.33 8.65 -13.66 10.3 -14 12 C-14.33 12 -14.66 12 -15 12 C-15 10.02 -15 8.04 -15 6 C-12.29957819 4.6497891 -10.07548373 4.75688993 -7.0625 4.6875 C-6.00160156 4.65011719 -4.94070312 4.61273438 -3.84765625 4.57421875 C-1 5 -1 5 0.87890625 6.76953125 C2 9 2 9 2 13 C2.99 13 3.98 13 5 13 C5 12.01 5 11.02 5 10 C4.34 10 3.68 10 3 10 C0 3.375 0 3.375 0 0 Z " fill="#275592" transform="translate(195,158)"/>
<path d="M0 0 C2.01822917 0.06510417 4.03645833 0.13020833 6.0546875 0.1953125 C5.7246875 3.1653125 5.3946875 6.1353125 5.0546875 9.1953125 C3.4046875 9.1953125 1.7546875 9.1953125 0.0546875 9.1953125 C-0.2753125 10.8453125 -0.6053125 12.4953125 -0.9453125 14.1953125 C-1.9353125 13.8653125 -2.9253125 13.5353125 -3.9453125 13.1953125 C-3.99923243 11.40397272 -4.03806821 9.61217351 -4.0703125 7.8203125 C-4.09351563 6.82257813 -4.11671875 5.82484375 -4.140625 4.796875 C-3.90471041 1.65449267 -3.28403811 0.3297227 0 0 Z " fill="#AD8B2D" transform="translate(56.9453125,175.8046875)"/>
<path d="M0 0 C3.3 0 6.6 0 10 0 C10 1.32 10 2.64 10 4 C9.01 4 8.02 4 7 4 C7 6.97 7 9.94 7 13 C5.68 13 4.36 13 3 13 C3 10.03 3 7.06 3 4 C1.68 3.67 0.36 3.34 -1 3 C-0.67 2.01 -0.34 1.02 0 0 Z " fill="#AA882E" transform="translate(129,176)"/>
<path d="M0 0 C0.66 0 1.32 0 2 0 C1.90460937 0.69867188 1.80921875 1.39734375 1.7109375 2.1171875 C1.60007812 3.02726563 1.48921875 3.93734375 1.375 4.875 C1.20097656 6.23238281 1.20097656 6.23238281 1.0234375 7.6171875 C1.01570313 8.40351563 1.00796875 9.18984375 1 10 C1.66 10.66 2.32 11.32 3 12 C3.12375 11.05125 3.2475 10.1025 3.375 9.125 C4 6 4 6 6 4 C9.0390625 3.8046875 9.0390625 3.8046875 12.625 3.875 C14.40777344 3.90207031 14.40777344 3.90207031 16.2265625 3.9296875 C17.14179687 3.95289063 18.05703125 3.97609375 19 4 C19.99 6.97 20.98 9.94 22 13 C21.34 13 20.68 13 20 13 C19.34 10.69 18.68 8.38 18 6 C14.04 6 10.08 6 6 6 C5.34 8.31 4.68 10.62 4 13 C2.02 13 0.04 13 -2 13 C-3.18414294 9.44757118 -2.69535532 8.30169438 -1.5625 4.8125 C-1.27503906 3.91144531 -0.98757812 3.01039063 -0.69140625 2.08203125 C-0.46324219 1.39496094 -0.23507813 0.70789063 0 0 Z " fill="#255085" transform="translate(47,159)"/>
<path d="M0 0 C5 0 10 0 15 0 C15.25 6.625 15.25 6.625 13 10 C12.34 9.01 11.68 8.02 11 7 C10.34 7.66 9.68 8.32 9 9 C6.94140625 9.30078125 6.94140625 9.30078125 4.5625 9.3125 C3.38880859 9.33763672 3.38880859 9.33763672 2.19140625 9.36328125 C-0.46127163 8.92353251 -1.322967 8.04371546 -3 6 C-2.01 4.02 -1.02 2.04 0 0 Z M0 2 C-0.04080783 3.99958364 -0.04254356 6.00045254 0 8 C4.455 7.505 4.455 7.505 9 7 C9.33 5.68 9.66 4.36 10 3 C7.23737286 1.15824858 2.84907682 -0.84907682 0 2 Z " fill="#1F579A" transform="translate(151,147)"/>
<path d="M0 0 C2.475 0.495 2.475 0.495 5 1 C5 1.66 5 2.32 5 3 C5.99 3 6.98 3 8 3 C9.00109515 6.31070838 9.10356134 9.30084769 9.0625 12.75 C9.05347656 13.73484375 9.04445313 14.7196875 9.03515625 15.734375 C9.02355469 16.48203125 9.01195313 17.2296875 9 18 C7.66666667 18 6.33333333 18 5 18 C4.97421875 17.26394531 4.9484375 16.52789062 4.921875 15.76953125 C4.58144483 9.91258492 4.32166709 6.32166709 0 2 C0 1.34 0 0.68 0 0 Z " fill="#255EA7" transform="translate(94,145)"/>
<path d="M0 0 C3.31686552 0.01786463 3.9727453 0.14069624 6.6875 2.3125 C7.1825 2.9725 7.6775 3.6325 8.1875 4.3125 C7.8575 4.9725 7.5275 5.6325 7.1875 6.3125 C6.671875 5.631875 6.15625 4.95125 5.625 4.25 C3.24732579 1.98557349 3.24732579 1.98557349 -0.3125 2.0625 C-4.20569031 3.45292511 -4.50338085 3.87554597 -6.25 7.375 C-6.79683579 8.67688103 -7.32630181 9.98677947 -7.8125 11.3125 C-6.8225 11.3125 -5.8325 11.3125 -4.8125 11.3125 C-4.1525 9.6625 -3.4925 8.0125 -2.8125 6.3125 C-2.1525 6.3125 -1.4925 6.3125 -0.8125 6.3125 C-1.8025 9.6125 -2.7925 12.9125 -3.8125 16.3125 C-4.1425 15.6525 -4.4725 14.9925 -4.8125 14.3125 C-6.98124252 14.81853992 -8.81217627 15.31233813 -10.8125 16.3125 C-8.17060861 0.66972202 -8.17060861 0.66972202 0 0 Z " fill="#1F4B81" transform="translate(58.8125,141.6875)"/>
<path d="M0 0 C0.99 0.33 1.98 0.66 3 1 C4.79403055 1.11591448 6.59186356 1.17652871 8.3894043 1.20532227 C9.49031906 1.22526749 10.59123383 1.24521271 11.72550964 1.26576233 C13.50687065 1.29083107 13.50687065 1.29083107 15.32421875 1.31640625 C16.54075638 1.33718735 17.75729401 1.35796844 19.01069641 1.37937927 C22.90290596 1.44484717 26.79518385 1.50374715 30.6875 1.5625 C33.32357482 1.60568782 35.95964269 1.6493022 38.59570312 1.69335938 C45.06372951 1.80052578 51.53182411 1.90229745 58 2 C58 2.33 58 2.66 58 3 C50.81006945 3.14296655 43.62012695 3.28532011 36.43017578 3.42724609 C33.98388392 3.47560718 31.53759483 3.52410895 29.09130859 3.57275391 C25.5765046 3.64262222 22.06169095 3.71198573 18.546875 3.78125 C17.4519574 3.80312378 16.35703979 3.82499756 15.22894287 3.84753418 C14.20818665 3.86755493 13.18743042 3.88757568 12.13574219 3.90820312 C11.23861511 3.92596802 10.34148804 3.94373291 9.41717529 3.96203613 C7.27834321 3.99562837 5.13909586 4 3 4 C1.25 2 1.25 2 0 0 Z " fill="#2C578D" transform="translate(81,114)"/>
<path d="M0 0 C-3.15506142 0.93619813 -5.96586502 1.1057123 -9.25 1.0625 C-10.14203125 1.05347656 -11.0340625 1.04445312 -11.953125 1.03515625 C-12.62859375 1.02355469 -13.3040625 1.01195312 -14 1 C-14.66 2.65 -15.32 4.3 -16 6 C-17.32 6 -18.64 6 -20 6 C-21.7511573 7.4166747 -21.7511573 7.4166747 -23 9 C-21.56179187 3.96627156 -19.09754485 2.01044111 -15 -1 C-9.66353134 -2.77882289 -5.04741524 -2.44723163 0 0 Z " fill="#B29135" transform="translate(158,37)"/>
<path d="M0 0 C0.33 1.32 0.66 2.64 1 4 C-1.31 4 -3.62 4 -6 4 C-6.2475 4.639375 -6.495 5.27875 -6.75 5.9375 C-8 8 -8 8 -10.125 8.75 C-11.053125 8.87375 -11.053125 8.87375 -12 9 C-11.47229401 5.20051686 -10.62859821 2.83079807 -8 0 C-4.71023192 -1.09658936 -3.28696233 -0.79953138 0 0 Z " fill="#285CA4" transform="translate(127,144)"/>
<path d="M0 0 C0.33 0.66 0.66 1.32 1 2 C-0.32 2 -1.64 2 -3 2 C-3 2.66 -3 3.32 -3 4 C-4.32 4 -5.64 4 -7 4 C-7.33 5.98 -7.66 7.96 -8 10 C-9.32 9.67 -10.64 9.34 -12 9 C-11.47229401 5.20051686 -10.62859821 2.83079807 -8 0 C-4.69693408 -1.10102197 -3.28414305 -0.95067299 0 0 Z " fill="#265CA4" transform="translate(63,144)"/>
<path d="M0 0 C2 2 2 2 2.125 5.125 C2.08375 6.07375 2.0425 7.0225 2 8 C1.67 8 1.34 8 1 8 C0.34 6.02 -0.32 4.04 -1 2 C-1.99 2 -2.98 2 -4 2 C-4.12375 2.9075 -4.2475 3.815 -4.375 4.75 C-4.92109677 7.58970323 -5.57263803 9.52590591 -7 12 C-7.66 12 -8.32 12 -9 12 C-9 8.04 -9 4.08 -9 0 C-5.88135455 -1.55932272 -3.33704665 -0.65549131 0 0 Z " fill="#AA8C39" transform="translate(114,177)"/>
<path d="M0 0 C0.99 0.33 1.98 0.66 3 1 C1.66666667 2.33333333 0.33333333 3.66666667 -1 5 C-1.21676408 8.39597063 -1.08073852 10.75778445 0 14 C-0.9375 16.1875 -0.9375 16.1875 -2 18 C-0.68 18 0.64 18 2 18 C2 18.66 2 19.32 2 20 C0.68 20 -0.64 20 -2 20 C-1.67 21.98 -1.34 23.96 -1 26 C-0.34 26 0.32 26 1 26 C0.67 26.66 0.34 27.32 0 28 C-2.11889286 26.29422462 -2.93058831 25.41350161 -3.38818359 22.6875 C-3.39156738 21.800625 -3.39495117 20.91375 -3.3984375 20 C-3.40230469 19.030625 -3.40617187 18.06125 -3.41015625 17.0625 C-3.39855469 16.051875 -3.38695313 15.04125 -3.375 14 C-3.38660156 12.989375 -3.39820312 11.97875 -3.41015625 10.9375 C-3.40628906 9.968125 -3.40242188 8.99875 -3.3984375 8 C-3.39505371 7.113125 -3.39166992 6.22625 -3.38818359 5.3125 C-2.93058831 2.58649839 -2.11889286 1.70577538 0 0 Z " fill="#285996" transform="translate(83,144)"/>
<path d="M0 0 C0.99 0.33 1.98 0.66 3 1 C3.22151549 2.79008467 3.42682213 4.58218162 3.625 6.375 C3.74101563 7.37273437 3.85703125 8.37046875 3.9765625 9.3984375 C3.98429687 10.25695312 3.99203125 11.11546875 4 12 C3.34 12.66 2.68 13.32 2 14 C-0.02613297 12.05828923 -0.94008689 10.57117167 -1.234375 7.765625 C-1.24889108 5.48660077 -1.2391075 3.26692305 -1 1 C-0.67 0.67 -0.34 0.34 0 0 Z " fill="#BA9330" transform="translate(78,176)"/>
<path d="M0 0 C0.99 0 1.98 0 3 0 C3 4.62 3 9.24 3 14 C2.01 14 1.02 14 0 14 C0 9.38 0 4.76 0 0 Z " fill="#AE8D34" transform="translate(141,176)"/>
<path d="M0 0 C3.2542015 2.83430453 4.5206753 4.68607774 5 9 C5.66 9 6.32 9 7 9 C7 9.99 7 10.98 7 12 C6.01 12 5.02 12 4 12 C3.01 9.69 2.02 7.38 1 5 C-1.97 4.67 -4.94 4.34 -8 4 C-7.67 3.34 -7.34 2.68 -7 2 C-6.21625 2.04125 -5.4325 2.0825 -4.625 2.125 C-1.83883881 2.28728734 -1.83883881 2.28728734 0 0 Z " fill="#255DA8" transform="translate(193,159)"/>
<path d="M0 0 C1.11450049 3.34350146 0.91669067 4.66657937 0 8 C-0.99 9.485 -0.99 9.485 -2 11 C-2.99 11 -3.98 11 -5 11 C-4.34 7.7 -3.68 4.4 -3 1 C-2.01 0.67 -1.02 0.34 0 0 Z " fill="#B29332" transform="translate(121,179)"/>
<path d="M0 0 C0.33 0 0.66 0 1 0 C1.125 2.875 1.125 2.875 1 6 C-1 8 -1 8 -3.4375 8.375 C-6 8 -6 8 -7.8125 6.125 C-9 4 -9 4 -9 2 C-8.34 2 -7.68 2 -7 2 C-7 2.66 -7 3.32 -7 4 C-3.535 3.505 -3.535 3.505 0 3 C0 2.01 0 1.02 0 0 Z " fill="#B79124" transform="translate(156,182)"/>
<path d="M0 0 C0.99 0.33 1.98 0.66 3 1 C3 4.96 3 8.92 3 13 C1.68 13.33 0.36 13.66 -1 14 C-1.66 13.34 -2.32 12.68 -3 12 C-1.35 12 0.3 12 2 12 C2 10.02 2 8.04 2 6 C1.01 6 0.02 6 -1 6 C-1.042721 4.33388095 -1.04063832 2.66617115 -1 1 C-0.67 0.67 -0.34 0.34 0 0 Z " fill="#AA943D" transform="translate(169,176)"/>
<path d="M0 0 C2.0625 0.4375 2.0625 0.4375 4 1 C4 1.66 4 2.32 4 3 C3.01 3 2.02 3 1 3 C1.33 3.66 1.66 4.32 2 5 C2.06950541 6.54023996 2.08452357 8.08334988 2.0625 9.625 C2.05347656 10.44226563 2.04445312 11.25953125 2.03515625 12.1015625 C2.02355469 12.72804687 2.01195312 13.35453125 2 14 C1.01 14 0.02 14 -1 14 C-1.02685938 11.85423363 -1.04633088 9.70837355 -1.0625 7.5625 C-1.07410156 6.36753906 -1.08570313 5.17257813 -1.09765625 3.94140625 C-1 1 -1 1 0 0 Z " fill="#A98C32" transform="translate(161,176)"/>
<path d="M0 0 C0 0.99 0 1.98 0 3 C-0.598125 2.79375 -1.19625 2.5875 -1.8125 2.375 C-4.28450846 1.69328085 -4.28450846 1.69328085 -7 4 C-7.66 3.67 -8.32 3.34 -9 3 C-9 3.99 -9 4.98 -9 6 C-9.66 5.67 -10.32 5.34 -11 5 C-8.6102683 -1.65710974 -6.76304013 -1.12717335 0 0 Z " fill="#A98236" transform="translate(74,177)"/>
<path d="M0 0 C3.33511388 2.9901021 5.21521119 5.89498574 7 10 C7 10.66 7 11.32 7 12 C4.36 12 1.72 12 -1 12 C-1.33 11.01 -1.66 10.02 -2 9 C-0.02 9.66 1.96 10.32 4 11 C3.525625 9.9275 3.05125 8.855 2.5625 7.75 C1.46233668 5.19160135 0.54832997 2.74164983 0 0 Z " fill="#275081" transform="translate(161,160)"/>
<path d="M0 0 C0.66 0 1.32 0 2 0 C1.01 3.3 0.02 6.6 -1 10 C-1.33 9.34 -1.66 8.68 -2 8 C-4.16874252 8.50603992 -5.99967627 8.99983813 -8 10 C-7.25 8.0625 -7.25 8.0625 -6 6 C-5.34 5.855625 -4.68 5.71125 -4 5.5625 C-3.01 5.2840625 -3.01 5.2840625 -2 5 C-0.70339566 2.50965614 -0.70339566 2.50965614 0 0 Z " fill="#215293" transform="translate(56,148)"/>
<path d="M0 0 C0.33 0 0.66 0 1 0 C1.12375 0.804375 1.2475 1.60875 1.375 2.4375 C1.58125 3.283125 1.7875 4.12875 2 5 C2.66 5.33 3.32 5.66 4 6 C4 7.65 4 9.3 4 11 C2.68 11 1.36 11 0 11 C0 7.37 0 3.74 0 0 Z " fill="#AB8D3A" transform="translate(53,178)"/>
<path d="M0 0 C2 1 2 1 2.6328125 2.84765625 C2.79523438 3.57855469 2.95765625 4.30945313 3.125 5.0625 C3.29257813 5.79597656 3.46015625 6.52945313 3.6328125 7.28515625 C3.75398437 7.85105469 3.87515625 8.41695312 4 9 C2.68 9 1.36 9 0 9 C-1.36623674 6.26752652 -1.128426 4.01801098 -1 1 C-0.67 0.67 -0.34 0.34 0 0 Z " fill="#B4942A" transform="translate(126,181)"/>
<path d="M0 0 C2.875 0.6875 2.875 0.6875 6 2 C7.375 4.625 7.375 4.625 8 7 C7.01 6.34 6.02 5.68 5 5 C5 6.32 5 7.64 5 9 C4.34 9 3.68 9 3 9 C2 6 1 3 0 0 Z " fill="#25599B" transform="translate(155,159)"/>
<path d="M0 0 C2.41668021 -0.0739403 4.5020569 -0.11187894 6.86328125 0.42578125 C7.52328125 1.41578125 8.18328125 2.40578125 8.86328125 3.42578125 C5.56328125 3.09578125 2.26328125 2.76578125 -1.13671875 2.42578125 C-1.46671875 4.40578125 -1.79671875 6.38578125 -2.13671875 8.42578125 C-2.79671875 8.42578125 -3.45671875 8.42578125 -4.13671875 8.42578125 C-5.13671875 5.42578125 -5.13671875 5.42578125 -4.26171875 2.73828125 C-2.13671875 0.42578125 -2.13671875 0.42578125 0 0 Z " fill="#204F8C" transform="translate(153.13671875,146.57421875)"/>
<path d="M0 0 C2.9375 1 2.9375 1 5 2 C1.58860997 3.09651823 -1.20655581 2.94215473 -4.75 2.5625 C-6.22726563 2.40974609 -6.22726563 2.40974609 -7.734375 2.25390625 C-8.48203125 2.17011719 -9.2296875 2.08632813 -10 2 C-6.28424249 -0.47717167 -4.40013262 -0.30345742 0 0 Z " fill="#A98F45" transform="translate(153,35)"/>
<path d="M0 0 C0.99 0.33 1.98 0.66 3 1 C3 3.97 3 6.94 3 10 C2.67 10 2.34 10 2 10 C1.67 8.02 1.34 6.04 1 4 C0.67 5.98 0.34 7.96 0 10 C-0.33 10 -0.66 10 -1 10 C-1.02689216 8.52093108 -1.04634621 7.04172517 -1.0625 5.5625 C-1.07410156 4.73878906 -1.08570312 3.91507813 -1.09765625 3.06640625 C-1 1 -1 1 0 0 Z " fill="#A28947" transform="translate(78,176)"/>
<path d="M0 0 C2.33944736 0.28730055 4.6739143 0.61936779 7 1 C6 3 6 3 2.9375 4.125 C1.4834375 4.558125 1.4834375 4.558125 0 5 C-0.5625 3.0625 -0.5625 3.0625 -1 1 C-0.67 0.67 -0.34 0.34 0 0 Z " fill="#245EA6" transform="translate(184,144)"/>
<path d="M0 0 C0.99 0 1.98 0 3 0 C3.66 2.97 4.32 5.94 5 9 C4.01 9.495 4.01 9.495 3 10 C1.87119943 6.68885166 0.78697325 3.41021743 0 0 Z " fill="#274F86" transform="translate(198,162)"/>
<path d="M0 0 C1.09658936 3.28976808 0.79953138 4.71303767 0 8 C-0.66 8 -1.32 8 -2 8 C-2 5.69 -2 3.38 -2 1 C-1.34 0.67 -0.68 0.34 0 0 Z " fill="#BF9220" transform="translate(121,179)"/>
<path d="M0 0 C0.33 0.66 0.66 1.32 1 2 C-1.8125 3.125 -1.8125 3.125 -5 4 C-5.99 3.34 -6.98 2.68 -8 2 C-4.77208445 -0.1519437 -3.71599191 -0.20086443 0 0 Z " fill="#A18432" transform="translate(155,176)"/>
<path d="M0 0 C0.66 0 1.32 0 2 0 C2 1.98 2 3.96 2 6 C1.01 6 0.02 6 -1 6 C-1.042721 4.33388095 -1.04063832 2.66617115 -1 1 C-0.67 0.67 -0.34 0.34 0 0 Z " fill="#AA8B2F" transform="translate(169,176)"/>
<path d="" fill="#FFFF00" transform="translate(0,0)"/>
<path d="" fill="#808080" transform="translate(0,0)"/>
<path d="" fill="#FFFF00" transform="translate(0,0)"/>
</svg>
